<!DOCTYPE svg PUBLIC "-//W3C//DTD SVG 1.1//EN" "http://www.w3.org/Graphics/SVG/1.1/DTD/svg11.dtd">
<!-- Uploaded to: SVG Repo, www.svgrepo.com, Transformed by: SVG Repo Mixer Tools -->
<svg version="1.1" xmlns="http://www.w3.org/2000/svg" viewBox="0 0 512 512" xmlns:xlink="http://www.w3.org/1999/xlink" enable-background="new 0 0 512 512" width="800px" height="800px" fill="#fbd23c" stroke="#fbd23c">
<g id="SVGRepo_bgCarrier" stroke-width="0"/>
<g id="SVGRepo_tracerCarrier" stroke-linecap="round" stroke-linejoin="round"/>
<g id="SVGRepo_iconCarrier"> <g> <g> <path fill="none" stroke="#000000" stroke-linejoin="round" stroke-linecap="round" stroke-width="66.666" d="m422.6,487.8" stroke-miterlimit="10"/> </g> </g> <g> <g> <path d="m457.3,135.1c0-11.3-9.1-20.4-20.4-20.4h-126.3v-79.6c0-11.3-9.1-20.4-20.4-20.4-11.3,0-20.4,9.1-20.4,20.4v79.6h-27.2v178.9h214.7v-158.5z"/> <path d="M15.9,334.4L86.4,489c3.3,7.3,10.6,12,18.6,12h311.3c36.8,0,66.8-30.8,67.5-69l12.4-97.6H15.9z"/> <path d="m201.8,205.9h-75.4c-11.3,0-20.4,9.1-20.4,20.4v67.3h95.8v-87.7z"/> <path d="m353.2,51.1h116.9c11.1,0 20-9 20-20 0-11.1-9-20-20-20h-116.9c-11.1,0-20,9-20,20 0,11 9,20 20,20z"/> </g> </g> </g>
</svg>